<?xml version="1.0" encoding="UTF-8" standalone="no"?>
<svg width="80px" height="80px" viewBox="0 0 80 80" version="1.1" xmlns="http://www.w3.org/2000/svg" xmlns:xlink="http://www.w3.org/1999/xlink" xmlns:sketch="http://www.bohemiancoding.com/sketch/ns">
    <!-- Generator: Sketch 3.4 (15575) - http://www.bohemiancoding.com/sketch -->
    <title>add</title>
    <desc>Created with Sketch.</desc>
    <defs>
        <linearGradient x1="50%" y1="100%" x2="50%" y2="3.061617e-15%" id="linearGradient-1">
            <stop stop-color="#C1D836" offset="0%"></stop>
            <stop stop-color="#7E9D12" offset="100%"></stop>
        </linearGradient>
    </defs>
    <g id="Landing" stroke="none" stroke-width="1" fill="none" fill-rule="evenodd" sketch:type="MSPage">
        <g id="1" sketch:type="MSArtboardGroup" transform="translate(-338.000000, -1139.000000)" fill="url(#linearGradient-1)">
            <g id="2" sketch:type="MSLayerGroup" transform="translate(0.000000, 863.000000)">
                <g id="1" transform="translate(250.000000, 276.000000)" sketch:type="MSShapeGroup">
                    <path d="M131,37 L131,20 L125,20 L125,37 L108,37 L108,43 L125,43 L125,60 L131,60 L131,43 L148,43 L148,37 L131,37 Z M128,80 C150.09139,80 168,62.09139 168,40 C168,17.90861 150.09139,0 128,0 C105.90861,0 88,17.90861 88,40 C88,62.09139 105.90861,80 128,80 Z" id="add"></path>
                </g>
            </g>
        </g>
    </g>
</svg>