<?xml version="1.0" encoding="UTF-8" standalone="no"?>
<svg width="1440px" height="394px" viewBox="0 0 1440 394" version="1.1" xmlns="http://www.w3.org/2000/svg" xmlns:xlink="http://www.w3.org/1999/xlink" xmlns:sketch="http://www.bohemiancoding.com/sketch/ns">
    <!-- Generator: Sketch 3.4 (15575) - http://www.bohemiancoding.com/sketch -->
    <title>Lines + Graph</title>
    <desc>Created with Sketch.</desc>
    <defs>
        <linearGradient x1="1.11022302e-14%" y1="100%" x2="1.11022302e-14%" y2="0%" id="linearGradient-1">
            <stop stop-color="#000000" stop-opacity="0.08" offset="0%"></stop>
            <stop stop-color="#000000" stop-opacity="0" offset="100%"></stop>
        </linearGradient>
        <linearGradient x1="50%" y1="100%" x2="50%" y2="3.061617e-15%" id="linearGradient-2">
            <stop stop-color="#5ACFF1" stop-opacity="0.2" offset="0%"></stop>
            <stop stop-color="#2592D5" stop-opacity="0.6" offset="100%"></stop>
        </linearGradient>
    </defs>
    <g id="Landing" stroke="none" stroke-width="1" fill="none" fill-rule="evenodd" sketch:type="MSPage">
        <g id="2" sketch:type="MSArtboardGroup" transform="translate(0.000000, -3073.000000)">
            <g id="5" sketch:type="MSLayerGroup" transform="translate(-1.000000, 3067.000000)">
                <g id="Lines-+-Graph" sketch:type="MSShapeGroup">
                    <g id="Lines" transform="translate(1.000000, 0.000000)" stroke-dasharray="2,5">
                        <g id="Horisontal" transform="translate(0.000000, 79.000000)" stroke="#000000" stroke-opacity="0.08">
                            <rect id="Rectangle-54-Copy-7" x="0" y="0" width="1440" height="1"></rect>
                            <rect id="Rectangle-54-Copy-6" x="0" y="80" width="1440" height="1"></rect>
                            <rect id="Rectangle-54" x="0" y="160" width="1440" height="1"></rect>
                            <rect id="Rectangle-54-Copy" x="0" y="240" width="1440" height="1"></rect>
                            <rect id="Rectangle-54-Copy-2" x="0" y="320" width="1440" height="1"></rect>
                        </g>
                        <g id="Vertical" transform="translate(120.000000, 0.000000)" stroke="url(#linearGradient-1)">
                            <rect id="Rectangle-63" x="0" y="0" width="1" height="400"></rect>
                            <rect id="Rectangle-63-Copy" x="120" y="0" width="1" height="400"></rect>
                            <rect id="Rectangle-63-Copy-2" x="240" y="0" width="1" height="400"></rect>
                            <rect id="Rectangle-63-Copy-3" x="360" y="0" width="1" height="400"></rect>
                            <rect id="Rectangle-63-Copy-4" x="480" y="0" width="1" height="400"></rect>
                            <rect id="Rectangle-63-Copy-5" x="600" y="0" width="1" height="400"></rect>
                            <rect id="Rectangle-63-Copy-6" x="720" y="0" width="1" height="400"></rect>
                            <rect id="Rectangle-63-Copy-7" x="840" y="0" width="1" height="400"></rect>
                            <rect id="Rectangle-63-Copy-8" x="960" y="0" width="1" height="400"></rect>
                            <rect id="Rectangle-63-Copy-9" x="1080" y="0" width="1" height="400"></rect>
                            <rect id="Rectangle-63-Copy-10" x="1200" y="0" width="1" height="400"></rect>
                        </g>
                    </g>
                    <g id="Graph" transform="translate(0.000000, 70.000000)" stroke="#2DA2E0" stroke-width="2" fill="url(#linearGradient-2)">
                        <path d="M2.80851964e-08,331 L2.80851964e-08,230 L121.5,289.5 L241.5,244 L361.5,250.5 L481.5,196.5 L601.5,141 L721.5,145 L841.5,99.5 L961.5,0.5 L1081.5,33.5 L1201.5,86.5 L1321.5,58.5 L1442,65 L1441.99996,331 L2.80851964e-08,331 Z" id="Path-521"></path>
                    </g>
                </g>
            </g>
        </g>
    </g>
</svg>