<?xml version="1.0" encoding="UTF-8" standalone="no"?>
<svg width="155px" height="26px" viewBox="0 0 155 26" version="1.1" xmlns="http://www.w3.org/2000/svg" xmlns:xlink="http://www.w3.org/1999/xlink" xmlns:sketch="http://www.bohemiancoding.com/sketch/ns">
    <!-- Generator: Sketch 3.4 (15575) - http://www.bohemiancoding.com/sketch -->
    <title>logo copy 2</title>
    <desc>Created with Sketch.</desc>
    <defs></defs>
    <g id="Landing" stroke="none" stroke-width="1" fill="none" fill-rule="evenodd" sketch:type="MSPage">
        <g id="1" sketch:type="MSArtboardGroup" transform="translate(-250.000000, -27.000000)" fill="#262626">
            <g sketch:type="MSLayerGroup" id="Menu">
                <g transform="translate(250.000000, 15.000000)" sketch:type="MSShapeGroup">
                    <path d="M20.2056256,29.6383583 C20.2056256,30.1856685 20.0853552,30.6468211 19.8448109,31.0218299 C19.6042665,31.3968388 19.2785342,31.7110307 18.8676043,31.964415 C18.4566743,32.2177994 17.9705815,32.405301 17.4093113,32.5269254 C16.8480412,32.6485499 16.2466893,32.7093613 15.6052376,32.7093613 L4.48011639,32.7093613 C3.85871012,32.7093613 3.27740329,32.6333471 2.73617847,32.4813165 C2.19495365,32.3292859 1.7188834,32.1164462 1.30795344,31.8427911 C0.897023487,31.569136 0.576302478,31.2448089 0.345780795,30.8698001 C0.115259113,30.4947913 0,30.0640443 0,29.5775464 L0,20.5773793 C0,20.1314229 0.115259113,19.7108112 0.345780795,19.3155316 C0.576302478,18.920252 0.897023487,18.5857897 1.30795344,18.3121346 C1.7188834,18.0384795 2.19495365,17.8307074 2.73617847,17.6888122 C3.27740329,17.546917 3.85871012,17.4759704 4.48011639,17.4759704 L15.6052376,17.4759704 C16.9683224,17.4759704 18.0758121,17.7445538 18.9277401,18.2817286 C19.779668,18.8189034 20.2056256,19.6043831 20.2056256,20.6381913 L20.2056256,29.6383583 Z M15.1842871,20.6685972 L5.02133851,20.6685972 L5.02133851,29.5775464 L15.1842871,29.5775464 L15.1842871,20.6685972 Z M37.5247333,29.5775464 C37.4846425,30.1248566 37.3343046,30.601212 37.0737148,31.006627 C36.8131251,31.4120419 36.4773703,31.736369 36.0664403,31.979618 C35.6555104,32.222867 35.1744289,32.405301 34.6231814,32.5269254 C34.0719339,32.6485499 33.4755932,32.7093613 32.8341416,32.7093613 L26.6401552,32.7093613 C25.9987035,32.7093613 25.3973517,32.6434823 24.8360815,32.5117225 C24.2748113,32.3799626 23.7837072,32.1823258 23.3627546,31.918806 C22.941802,31.6552863 22.6110584,31.3309592 22.3705141,30.945815 C22.1299697,30.5606708 22.0096993,30.0944506 22.0096993,29.5471404 L22.0096993,17.4759704 L22.4607177,17.4759704 C23.8638932,17.4759704 24.9763942,17.7496214 25.7982541,18.2969316 C26.620114,18.8442418 27.0310378,19.6347891 27.0310378,20.6685972 L27.0310378,29.5775464 L37.5247333,29.5775464 Z M43.8089234,32.7093613 C43.2075625,32.7093613 42.6362782,32.6333471 42.0950533,32.4813165 C41.5538285,32.3292859 41.0777583,32.1164462 40.6668283,31.8427911 C40.2558984,31.569136 39.9301661,31.2397413 39.6896217,30.8545971 C39.4490774,30.4694529 39.328807,30.0336384 39.328807,29.5471404 L39.328807,17.4759704 L44.3501455,17.4759704 L44.3501455,32.7093613 L43.8089234,32.7093613 Z M63.2027158,32.7093613 L63.2027158,23.3443226 L57.2192047,30.1552598 L51.1755577,23.3443226 L51.1755577,32.7093613 L46.1542192,32.7093613 L46.1542192,17.4759704 L47.1163919,17.4759704 C47.3769816,17.4759704 47.7127364,17.481038 48.1236663,17.4911734 C48.5345963,17.5013088 48.9655652,17.5671877 49.4165858,17.6888122 C49.8676065,17.8104367 50.3236317,17.9726002 50.7846751,18.1753077 C51.2457184,18.3780152 51.6666648,18.6820719 52.0475267,19.0874868 L57.2192047,24.5605614 L62.3307468,19.0874868 C62.6915634,18.6820719 63.1024872,18.3780152 63.5635306,18.1753077 C64.0245739,17.9726002 64.4856104,17.8104367 64.9466537,17.6888122 C65.4076971,17.5671877 65.8486885,17.5013088 66.2696411,17.4911734 C66.6905938,17.481038 67.0313598,17.4759704 67.2919496,17.4759704 L68.2240543,17.4759704 L68.2240543,32.7093613 L63.2027158,32.7093613 Z M90.2337536,23.4963524 C90.2337536,24.5707021 89.7226045,25.3764522 88.700291,25.913627 C87.6779774,26.4508018 86.3048906,26.7193852 84.5809893,26.7193852 L77.0640155,26.7193852 C77.0640155,26.3950533 77.1191394,26.0352529 77.2293889,25.6399733 C77.3396384,25.2446937 77.5100215,24.8950286 77.7405432,24.5909673 C77.9710648,24.2869061 78.2767521,24.028458 78.657614,23.8156151 C79.0384759,23.6027723 79.4894898,23.4963524 80.0106693,23.4963524 L85.1823472,23.4963524 L85.1823472,20.6685972 L75.0494665,20.6685972 L75.0494665,29.1518628 C75.0494665,30.5708151 74.6184977,31.5437965 73.756547,32.0708359 C73.315549,32.3343556 72.8144225,32.5066544 72.2531523,32.5877374 C71.6918821,32.6688204 71.1205978,32.7093613 70.5392823,32.7093613 L70.028128,32.7093613 L70.028128,17.4759704 L85.6333657,17.4759704 C86.9964504,17.4759704 88.1039401,17.7496214 88.9558681,18.2969316 C89.807796,18.8442418 90.2337536,19.6347891 90.2337536,20.6685972 L90.2337536,23.4963524 Z M103.493695,14.2225316 L102.802134,14.4961854 L102.681862,14.7698391 L102.772066,15.1651167 L102.741998,15.3475525 L102.681862,15.6516122 L103.28322,15.6516122 C103.363402,15.509717 103.453604,15.3678239 103.553831,15.2259286 C103.613967,15.1448457 103.684125,15.0637639 103.764306,14.9826809 L104.846751,14.9826809 L104.846751,14.7698391 L105.448109,14.7698391 L105.448109,15.1955227 L106.590689,15.1955227 L106.590689,15.4083645 L107.85354,15.4083645 L107.85354,15.2259286 L108.064016,15.2259286 L108.064016,14.9826809 L108.064016,14.861057 L108.244423,14.861057 L108.244423,14.9826809 L108.454898,14.9826809 L108.454898,15.6212063 L109.477207,15.6212063 L109.477207,15.2259286 L109.747818,15.2259286 L109.747818,15.6820182 L110.800194,15.6820182 L110.800194,15.1955227 L111.251212,15.1955227 L111.251212,16.2293257 L112.032978,16.2293257 L112.032978,16.867851 L108.935984,16.867851 C108.935984,16.948934 108.925962,17.0300158 108.905917,17.1110988 C108.865826,17.2732648 108.775623,17.3948874 108.635306,17.4759704 C108.555124,17.5165119 108.474944,17.5519852 108.394762,17.5823913 C108.314581,17.6127974 108.244423,17.6381355 108.184287,17.6584062 C108.104106,17.678677 108.033948,17.6888122 107.973812,17.6888122 C107.933721,17.8509782 107.953766,18.0840883 108.033948,18.3881495 C108.114129,18.6922107 108.224377,18.9861322 108.364694,19.2699226 C108.505012,19.6145253 108.685418,19.9793933 108.905917,20.3645375 L108.274491,20.6685972 C107.93372,20.121287 107.69819,19.6297288 107.567895,19.1939077 C107.4376,18.7580866 107.352409,18.4590976 107.312318,18.2969316 C107.292273,18.1753071 107.262205,18.1347662 107.222114,18.1753077 C107.202069,18.1955785 107.172001,18.2361194 107.131911,18.2969316 L106.8613,18.7834271 C106.781118,18.8036979 106.700938,18.8239683 106.620757,18.8442391 C106.540575,18.8645098 106.455384,18.8797126 106.365179,18.889848 C106.274975,18.8999834 106.169739,18.905051 106.049467,18.905051 C105.929194,18.9253217 105.859037,18.9253217 105.838991,18.905051 C105.818946,18.8847802 105.788878,18.8797126 105.748788,18.889848 C105.708697,18.8999834 105.638539,18.9506595 105.538312,19.0418779 C105.438085,19.1330962 105.267702,19.3003274 105.027158,19.5435764 C105.007113,19.5638471 104.967023,19.5841175 104.906887,19.6043883 C104.84675,19.624659 104.80666,19.6449295 104.786615,19.6652002 C104.606207,19.8273662 104.385711,19.9793945 104.125121,20.1212898 C104.004849,20.2023728 103.874556,20.2733193 103.734239,20.3341316 L102.080504,20.2125077 C102.080504,20.3341322 102.070482,20.4354844 102.050436,20.5165674 C102.010346,20.7192749 101.950211,20.8206271 101.870029,20.8206271 C101.809893,20.8206271 101.769803,20.8662356 101.749758,20.9574539 C101.729712,21.0486723 101.714678,21.1550921 101.704656,21.2767166 C101.694633,21.3983411 101.68461,21.5199638 101.674588,21.6415883 C101.664565,21.7632128 101.649531,21.864565 101.629486,21.945648 C101.589395,22.026731 101.544294,22.0672718 101.49418,22.0672718 C101.444067,22.0672718 101.398966,22.1078127 101.358875,22.1888957 C101.318784,22.2294372 101.298739,22.2750457 101.298739,22.3257226 C101.298739,22.3763995 101.288717,22.422008 101.268671,22.4625495 C101.248626,22.5233617 101.238603,22.5740378 101.238603,22.6145793 L101.208535,23.8612241 C101.348853,23.7598703 101.519236,23.7801408 101.71969,23.922036 C101.920143,24.0639312 102.110571,24.23623 102.29098,24.4389375 C102.511479,24.6619157 102.731974,24.9457019 102.952473,25.2903046 C103.112836,25.4524706 103.253152,25.6349046 103.373424,25.8376121 C103.493696,26.0403196 103.593921,26.2328888 103.674103,26.4153255 C103.754284,26.6383037 103.824442,26.8612786 103.884578,27.0842569 L103.583899,27.6011583 L105.207565,29.6383583 C105.267702,29.8613365 105.337859,30.1349875 105.418041,30.4593195 C105.498222,30.7836515 105.578402,31.1231814 105.658584,31.4779195 C105.738765,31.8326576 105.803912,32.1873903 105.854025,32.5421284 C105.904139,32.8968665 105.929195,33.2262612 105.929195,33.5303224 C105.929195,33.5911347 105.899127,33.6620812 105.838991,33.7431642 C105.778855,33.8242472 105.708697,33.9002614 105.628516,33.971209 C105.548335,34.0421566 105.483188,34.1181708 105.433075,34.1992538 C105.382961,34.2803368 105.357905,34.3512833 105.357905,34.4120956 C105.357905,34.5945323 105.37795,34.7262902 105.418041,34.8073732 C105.458131,34.8884562 105.498222,35.0404845 105.538312,35.2634627 C105.67863,35.4458995 105.87908,35.608063 106.13967,35.7499582 C106.259942,35.8310412 106.380213,35.9019878 106.500485,35.9628 C106.761075,36.2263197 106.951503,36.4695651 107.071775,36.6925433 C107.192047,36.9155215 107.267216,37.1131584 107.297284,37.2854597 C107.327352,37.4577611 107.312318,37.5996542 107.252182,37.7111433 C107.192046,37.8226324 107.111866,37.8986466 107.011639,37.9391881 C106.911412,37.9797296 106.791142,38 106.650824,38 L106.229874,38 C106.069511,38 105.899128,37.9898648 105.71872,37.969594 C105.478175,37.969594 105.232623,37.8733094 104.982056,37.6807373 C104.731489,37.4881652 104.505982,37.2803932 104.305529,37.0574149 C104.285483,37.0371442 104.275461,36.9763329 104.275461,36.8749791 C104.275461,36.8344376 104.285483,36.7938967 104.305529,36.7533552 C104.225347,36.7533552 104.155189,36.74322 104.095053,36.7229493 C103.954736,36.6824078 103.884578,36.6621373 103.884578,36.6621373 C103.96476,36.1350979 103.984805,35.7144862 103.944714,35.4002896 C103.904623,35.086093 103.85451,34.8377801 103.794374,34.6553433 C103.774329,34.5742603 103.744261,34.4931786 103.704171,34.4120956 C103.684125,34.3715541 103.66408,34.3411484 103.644035,34.3208777 C103.603944,34.2600654 103.538798,34.2144569 103.448594,34.1840508 C103.358389,34.1536447 103.293243,34.097901 103.253152,34.016818 C103.152925,33.7330275 103.057711,33.4036328 102.967507,33.0286239 C102.877303,32.6536151 102.802134,32.2938147 102.741998,31.949212 C102.661817,31.5437971 102.591659,31.128253 102.531523,30.7025673 L99.2240543,26.962633 C98.9434192,27.6112969 98.6828334,28.2396807 98.442289,28.8478031 C98.22179,29.3748425 98.0063056,29.9069417 97.7958293,30.4441165 C97.585353,30.9812913 97.4300037,31.4120383 97.3297769,31.7363702 C97.1092779,32.4053049 96.9188498,32.8765927 96.7584869,33.1502478 C96.598124,33.4239029 96.4377635,33.6418102 96.2774006,33.8039762 C96.2373099,33.8445177 96.127062,33.9255994 95.9466537,34.0472239 C95.7662455,34.1688484 95.5607836,34.2904711 95.3302619,34.4120956 C95.0997402,34.5337201 94.8742332,34.6300047 94.6537342,34.7009523 C94.4332352,34.7718999 94.2628522,34.7566971 94.14258,34.6553433 C94.1225347,34.6756141 94.1225347,34.7313578 94.14258,34.8225762 C94.1626254,34.9137945 94.192693,35.0202144 94.2327837,35.1418388 C94.2728744,35.2634633 94.3079533,35.3901536 94.3380213,35.5219135 C94.3680894,35.6536733 94.3831232,35.7803636 94.3831232,35.9019881 C94.3831232,35.9425296 94.418202,35.9729352 94.4883608,35.993206 C94.5585196,36.0134767 94.6286773,36.0337472 94.6988361,36.0540179 C94.7689949,36.0742887 94.82913,36.109762 94.8792435,36.1604388 C94.9293569,36.2111157 94.9443907,36.2769946 94.9243453,36.3580776 C94.8842546,36.4594314 94.7990631,36.5253103 94.6687682,36.5557164 C94.5384733,36.5861226 94.3931466,36.6013254 94.2327837,36.6013254 C94.0523754,36.6013254 93.8519248,36.5911902 93.6314258,36.5709194 C93.2706093,36.5303779 93.0000009,36.3783496 92.8195926,36.1148299 C92.6391844,35.8513102 92.5289365,35.5675239 92.4888458,35.2634627 C92.4688004,35.1012967 92.4387328,35.0100797 92.3986421,34.989809 C92.3585514,34.9695382 92.3184612,34.9796735 92.2783705,35.020215 C92.2382798,35.0607565 92.2032009,35.106365 92.1731329,35.1570418 C92.1430648,35.2077187 92.128031,35.2127863 92.128031,35.1722448 C92.0879403,35.0506203 92.062884,34.9391329 92.0528613,34.8377791 C92.0428386,34.7364254 92.0378274,34.6553436 92.0378274,34.5945314 C92.0378274,34.5134484 92.0478499,34.4526371 92.0678952,34.4120956 C92.1681221,34.1688466 92.3134488,33.9306689 92.5038797,33.6975553 C92.6943107,33.4644417 92.9298402,33.2059935 93.2104753,32.922203 C93.250566,32.9019323 93.2555773,32.8107153 93.2255092,32.6485493 C93.1954412,32.4863833 93.2004524,32.3951663 93.2405432,32.3748956 C93.4009061,32.2127296 93.5612666,32.0556337 93.7216295,31.9036031 C93.8819924,31.7515725 94.0223078,31.6248822 94.14258,31.5235284 C94.2828976,31.401904 94.4131905,31.2904165 94.5334627,31.1890628 C94.6336895,30.7228356 94.7689937,30.1248575 94.9393792,29.3951106 C95.1097648,28.6653636 95.2951817,27.9558981 95.4956353,27.2666927 C95.7161343,26.4558628 95.9566751,25.6146393 96.2172648,24.7429972 C96.1571287,24.5402897 96.1170386,24.302112 96.0969932,24.0284569 C96.0769478,23.7548018 96.0719366,23.4760832 96.0819593,23.1922927 C96.0919819,22.9085023 96.1170383,22.6297837 96.157129,22.3561286 C96.1972197,22.0824735 96.2473324,21.8341605 96.3074685,21.6111823 C96.3676046,21.4084748 96.4177172,21.1094858 96.457808,20.7142062 C96.4978987,20.3189266 96.5379888,19.9185853 96.5780795,19.5131704 C96.6181703,19.1077554 96.6482379,18.7276846 96.6682832,18.3729465 C96.6883286,18.0182084 96.6983511,17.7597603 96.6983511,17.5975943 C96.7183965,17.1313671 96.8637232,16.7208906 97.1343356,16.3661525 C97.404948,16.0114144 97.6605226,15.7022902 97.9010669,15.4387704 C98.0012937,15.3374167 98.1015191,15.307011 98.2017459,15.3475525 C98.3019727,15.388094 98.402198,15.388094 98.5024248,15.3475525 C98.5625609,15.307011 98.6728088,15.2664701 98.8331717,15.2259286 C98.9935346,15.1853872 99.0937599,15.1549815 99.1338506,15.1347107 C99.153896,15.1347107 99.1639185,15.1245755 99.1639185,15.1043048 C99.1639185,15.084034 99.1438735,15.0637636 99.1037827,15.0434928 L98.9835112,14.9826809 L98.9534433,13.3407585 C99.0336247,13.0366973 99.1538951,12.793452 99.314258,12.6110152 C99.4746209,12.4285785 99.6550265,12.291753 99.8554801,12.2005347 C100.055934,12.1093163 100.271418,12.0535726 100.50194,12.0333018 C100.732462,12.0130311 100.957969,12.0028959 101.178468,12.0028959 C101.59942,11.9826251 101.940186,12.0687745 102.200776,12.2613466 C102.461366,12.4539187 102.671839,12.671826 102.832202,12.9150749 C103.01261,13.1988654 103.13288,13.5231925 103.193016,13.888066 L103.493695,14.2225316 Z M103.012609,18.0536838 C103.112836,18.0536838 103.198027,17.9979401 103.268186,17.886451 C103.338345,17.7749619 103.433559,17.6989477 103.553831,17.6584062 C103.654058,17.6381355 103.769317,17.6026622 103.899612,17.5519853 C104.029907,17.5013085 104.205301,17.4252943 104.4258,17.3239406 C104.606208,17.2428576 104.756546,17.1415054 104.876819,17.0198809 C104.936955,16.9590686 104.977045,16.9083925 104.99709,16.867851 C104.69641,16.867851 104.425801,16.8577158 104.185257,16.837445 C103.964758,16.837445 103.754285,16.8323774 103.553831,16.8222421 C103.353378,16.8121067 103.20304,16.8273095 103.102813,16.867851 C103.002586,16.9083925 102.902361,16.954001 102.802134,17.0046779 C102.701907,17.0553547 102.611704,17.1009632 102.531523,17.1415047 C102.431296,17.202317 102.341093,17.2631283 102.260912,17.3239406 C102.220821,17.3847528 102.190753,17.460767 102.170708,17.5519853 C102.150663,17.6432037 102.130618,17.7394883 102.110572,17.840842 C102.090527,17.9421958 102.070482,18.043548 102.050436,18.1449017 C102.210799,18.1449017 102.351115,18.1347665 102.471387,18.1144958 C102.571614,18.094225 102.67685,18.0840898 102.7871,18.0840898 C102.897349,18.0840898 102.972518,18.0739546 103.012609,18.0536838 L103.012609,18.0536838 Z M132.870029,29.5471404 C132.870029,30.0336384 132.744747,30.4694529 132.49418,30.8545971 C132.243613,31.2397413 131.91287,31.569136 131.50194,31.8427911 C131.09101,32.1164462 130.61494,32.3292859 130.073715,32.4813165 C129.53249,32.6333471 128.951183,32.7093613 128.329777,32.7093613 L118.377304,32.7093613 C117.755897,32.7093613 117.169579,32.6333471 116.618332,32.4813165 C116.067084,32.3292859 115.586003,32.1164462 115.175073,31.8427911 C114.764143,31.569136 114.438411,31.2397413 114.197866,30.8545971 C113.957322,30.4694529 113.837051,30.0336384 113.837051,29.5471404 L113.837051,17.4759704 L114.378274,17.4759704 C115.701268,17.4759704 116.77869,17.6685396 117.610572,18.0536838 C118.442455,18.438828 118.85839,19.1178879 118.85839,20.0908838 L118.85839,29.5775464 L127.848691,29.5775464 L127.848691,17.4759704 L132.870029,17.4759704 L132.870029,29.5471404 Z M155,29.5471404 C155,30.6417608 154.553997,31.4475109 153.661979,31.964415 C152.76996,32.4813191 151.602335,32.7397672 150.159069,32.7397672 L139.454898,32.7397672 C138.853537,32.7397672 138.267219,32.6738883 137.695926,32.5421284 C137.124633,32.4103686 136.613484,32.2076641 136.162464,31.934009 C135.711443,31.6603539 135.350632,31.3309592 135.080019,30.945815 C134.809407,30.5606708 134.674103,30.1045858 134.674103,29.5775464 L149.978661,29.5775464 L149.978661,26.7193852 L139.244423,26.7193852 C138.643062,26.7193852 138.066766,26.6535063 137.515519,26.5217464 C136.964271,26.3899866 136.478179,26.1872821 136.057226,25.913627 C135.636273,25.6399719 135.300519,25.3055096 135.049952,24.91023 C134.799384,24.5149504 134.674103,24.0436626 134.674103,23.4963524 L134.674103,20.9726569 C134.674103,20.3645345 134.799384,19.837503 135.049952,19.3915465 C135.300519,18.9455901 135.636273,18.5807221 136.057226,18.2969316 C136.478179,18.0131411 136.964271,17.8053691 137.515519,17.6736092 C138.066766,17.5418494 138.653085,17.4759704 139.274491,17.4759704 L150.219205,17.4759704 C151.662471,17.4759704 152.820073,17.7242833 153.692047,18.2209167 C154.56402,18.71755 155,19.5334354 155,20.6685972 L139.815713,20.6685972 L139.815713,23.4963524 L150.189137,23.4963524 C150.790498,23.4963524 151.381827,23.5520961 151.963143,23.6635853 C152.544458,23.7750744 153.055607,23.9524408 153.496605,24.1956897 C153.937603,24.4389387 154.298414,24.7581982 154.579049,25.1534778 C154.859685,25.5487574 155,25.9997747 155,26.5065434 L155,29.5471404 Z" id="logo-copy-2"></path>
                </g>
            </g>
        </g>
    </g>
</svg>