<?xml version="1.0" encoding="UTF-8" standalone="no"?>
<svg width="122px" height="50px" viewBox="0 0 122 50" version="1.1" xmlns="http://www.w3.org/2000/svg" xmlns:xlink="http://www.w3.org/1999/xlink" xmlns:sketch="http://www.bohemiancoding.com/sketch/ns">
    <!-- Generator: Sketch 3.4 (15575) - http://www.bohemiancoding.com/sketch -->
    <title>Sign in</title>
    <desc>Created with Sketch.</desc>
    <defs>
        <linearGradient x1="50%" y1="0%" x2="50%" y2="100%" id="linearGradient-1">
            <stop stop-color="#799913" offset="0%"></stop>
            <stop stop-color="#536A0A" offset="100%"></stop>
        </linearGradient>
    </defs>
    <g id="Landing" stroke="none" stroke-width="1" fill="none" fill-rule="evenodd" sketch:type="MSPage">
        <g id="1" sketch:type="MSArtboardGroup" transform="translate(-1068.000000, -15.000000)">
            <g sketch:type="MSLayerGroup" id="Menu">
                <g transform="translate(250.000000, 15.000000)" sketch:type="MSShapeGroup">
                    <g id="Sign-in" transform="translate(818.000000, 0.000000)">
                        <rect id="BG" fill="url(#linearGradient-1)" x="0" y="0" width="122" height="50" rx="2"></rect>
                        <path d="M44.6965724,25.4786847 C45.6651166,24.7227053 46.8377161,24.2160073 48.117918,24.0550438 C50.152951,21.4402285 52.985308,17.800931 55.004446,15.2065391 C55.1595215,10.0956104 59.3514702,6 64.5,6 C69.7467051,6 74,10.2532949 74,15.5 C74,20.6485298 69.9043896,24.8404785 64.7934613,24.9955537 C62.2416997,26.9815139 58.6607866,29.768432 55.9449562,31.882082 C55.5112287,35.3316753 52.5672247,38 49,38 C45.4616259,38 42.5364324,35.3746619 42.066059,31.9656253 L16.3034276,21.5213153 C15.116302,22.4479044 13.6226254,23 12,23 C8.13400675,23 5,19.8659932 5,16 C5,12.1340068 8.13400675,9 12,9 C15.5383741,9 18.4635676,11.6253381 18.933941,15.0343747 L44.6965724,25.4786847 Z M47.0042019,26.4142101 C47.6155556,26.1477695 48.2905211,26 49,26 C51.7614237,26 54,28.2385763 54,31 C54,33.7614237 51.7614237,36 49,36 C46.9117157,36 45.1224431,34.7197788 44.3742068,32.901361 L47.6850321,34.2435874 C49.476416,34.9698241 51.5173507,34.1063518 52.2435874,32.3149679 C52.9698241,30.523584 52.1063518,28.4826493 50.3149679,27.7564126 L47.0042019,26.4142101 Z M13.9957981,20.5857899 C13.3844444,20.8522305 12.7094789,21 12,21 C9.23857625,21 7,18.7614237 7,16 C7,13.2385763 9.23857625,11 12,11 C14.0882843,11 15.8775569,12.2802212 16.6257932,14.098639 L13.3149679,12.7564126 C11.523584,12.0301759 9.48264927,12.8936482 8.75641256,14.6850321 C8.03017585,16.476416 8.89364824,18.5173507 10.6850321,19.2435874 L13.9957981,20.5857899 Z M64.5,22 C68.0898509,22 71,19.0898509 71,15.5 C71,11.9101491 68.0898509,9 64.5,9 C60.9101491,9 58,11.9101491 58,15.5 C58,19.0898509 60.9101491,22 64.5,22 Z M64.5,20.5 C67.2614237,20.5 69.5,18.2614237 69.5,15.5 C69.5,12.7385763 67.2614237,10.5 64.5,10.5 C61.7385763,10.5 59.5,12.7385763 59.5,15.5 C59.5,18.2614237 61.7385763,20.5 64.5,20.5 Z" id="steam" fill="#FFFFFF"></path>
                        <path d="M83.09,13.62 C83.09,13.8933347 83.1366662,14.1266657 83.23,14.32 C83.3233338,14.5133343 83.4533325,14.671666 83.62,14.795 C83.7866675,14.9183339 83.9783322,15.0083331 84.195,15.065 C84.4116677,15.1216669 84.6466654,15.15 84.9,15.15 C85.1733347,15.15 85.4066657,15.1183336 85.6,15.055 C85.7933343,14.9916663 85.9499994,14.9100005 86.07,14.81 C86.1900006,14.7099995 86.2766664,14.5950006 86.33,14.465 C86.3833336,14.3349993 86.41,14.203334 86.41,14.07 C86.41,13.7966653 86.3483339,13.5950006 86.225,13.465 C86.101666,13.3349993 85.9666674,13.2433336 85.82,13.19 C85.5666654,13.0966662 85.2716683,13.0083338 84.935,12.925 C84.5983316,12.8416663 84.1833358,12.733334 83.69,12.6 C83.3833318,12.5199996 83.1283343,12.4150007 82.925,12.285 C82.7216656,12.1549994 82.5600006,12.0100008 82.44,11.85 C82.3199994,11.6899992 82.2350002,11.5200009 82.185,11.34 C82.1349997,11.1599991 82.11,10.9766676 82.11,10.79 C82.11,10.4299982 82.1849992,10.1183347 82.335,9.855 C82.4850007,9.59166535 82.6833321,9.3733342 82.93,9.2 C83.1766679,9.0266658 83.4566651,8.89833375 83.77,8.815 C84.0833349,8.73166625 84.3999984,8.69 84.72,8.69 C85.0933352,8.69 85.4449983,8.73833285 85.775,8.835 C86.1050016,8.93166715 86.3949987,9.0766657 86.645,9.27 C86.8950012,9.4633343 87.0933326,9.70166525 87.24,9.985 C87.3866674,10.2683347 87.46,10.5966648 87.46,10.97 L86.21,10.97 C86.1766665,10.5099977 86.0200014,10.185001 85.74,9.995 C85.4599986,9.80499905 85.1033355,9.71 84.67,9.71 C84.5233326,9.71 84.3733341,9.72499985 84.22,9.755 C84.0666659,9.78500015 83.9266673,9.83499965 83.8,9.905 C83.6733327,9.97500035 83.5683337,10.0699994 83.485,10.19 C83.4016662,10.3100006 83.36,10.4599991 83.36,10.64 C83.36,10.8933346 83.4383325,11.0916659 83.595,11.235 C83.7516674,11.3783341 83.9566654,11.4866663 84.21,11.56 C84.2366668,11.5666667 84.3416657,11.5949998 84.525,11.645 C84.7083342,11.6950002 84.9133322,11.7499997 85.14,11.81 C85.3666678,11.8700003 85.5883322,11.9283331 85.805,11.985 C86.0216677,12.041667 86.1766662,12.0833332 86.27,12.11 C86.5033345,12.1833337 86.7066658,12.2833327 86.88,12.41 C87.0533342,12.5366673 87.1983327,12.6816659 87.315,12.845 C87.4316672,13.0083342 87.518333,13.1833324 87.575,13.37 C87.6316669,13.5566676 87.66,13.7433324 87.66,13.93 C87.66,14.330002 87.5783341,14.6716652 87.415,14.955 C87.2516658,15.2383347 87.036668,15.4699991 86.77,15.65 C86.503332,15.8300009 86.2000017,15.9616663 85.86,16.045 C85.5199983,16.1283337 85.1733351,16.17 84.82,16.17 C84.4133313,16.17 84.0300018,16.1200005 83.67,16.02 C83.3099982,15.9199995 82.996668,15.7666677 82.73,15.56 C82.463332,15.3533323 82.2500008,15.0883349 82.09,14.765 C81.9299992,14.441665 81.8466667,14.0600022 81.84,13.62 L83.09,13.62 Z M88.62,8.86 L89.76,8.86 L89.76,9.94 L88.62,9.94 L88.62,8.86 Z M88.62,10.83 L89.76,10.83 L89.76,16 L88.62,16 L88.62,10.83 Z M95.78,15.73 C95.78,16.5100039 95.5616688,17.0916647 95.125,17.475 C94.6883311,17.8583352 94.0600041,18.05 93.24,18.05 C92.9799987,18.05 92.7183346,18.0233336 92.455,17.97 C92.1916653,17.9166664 91.9516677,17.8266673 91.735,17.7 C91.5183322,17.5733327 91.3366674,17.4066677 91.19,17.2 C91.0433326,16.9933323 90.9566668,16.7400015 90.93,16.44 L92.07,16.44 C92.1033335,16.6000008 92.1599996,16.7299995 92.24,16.83 C92.3200004,16.9300005 92.4149994,17.0083331 92.525,17.065 C92.6350005,17.1216669 92.756666,17.1583333 92.89,17.175 C93.023334,17.1916667 93.1633326,17.2 93.31,17.2 C93.7700023,17.2 94.1066656,17.0866678 94.32,16.86 C94.5333344,16.6333322 94.64,16.3066688 94.64,15.88 L94.64,15.09 L94.62,15.09 C94.4599992,15.3766681 94.241668,15.5999992 93.965,15.76 C93.6883319,15.9200008 93.3900016,16 93.07,16 C92.6566646,16 92.3050014,15.928334 92.015,15.785 C91.7249985,15.641666 91.4850009,15.4450013 91.295,15.195 C91.104999,14.9449988 90.9666671,14.6566683 90.88,14.33 C90.7933329,14.0033317 90.75,13.6533352 90.75,13.28 C90.75,12.9333316 90.8033328,12.6033349 90.91,12.29 C91.0166672,11.9766651 91.169999,11.7016679 91.37,11.465 C91.570001,11.2283321 91.8149985,11.0400007 92.105,10.9 C92.3950014,10.7599993 92.7233315,10.69 93.09,10.69 C93.4166683,10.69 93.7166653,10.7583326 93.99,10.895 C94.2633347,11.0316674 94.4733326,11.2466652 94.62,11.54 L94.64,11.54 L94.64,10.83 L95.78,10.83 L95.78,15.73 Z M93.25,15.1 C93.5033346,15.1 93.7183324,15.0483338 93.895,14.945 C94.0716675,14.8416661 94.2149994,14.7050009 94.325,14.535 C94.4350005,14.3649991 94.5149997,14.1716677 94.565,13.955 C94.6150002,13.7383322 94.64,13.5200011 94.64,13.3 C94.64,13.0799989 94.6133336,12.8666677 94.56,12.66 C94.5066664,12.4533323 94.4250005,12.2700008 94.315,12.11 C94.2049994,11.9499992 94.0616675,11.8233338 93.885,11.73 C93.7083324,11.6366662 93.4966679,11.59 93.25,11.59 C92.9966654,11.59 92.7833342,11.6433328 92.61,11.75 C92.4366658,11.8566672 92.2966672,11.9949991 92.19,12.165 C92.0833328,12.3350009 92.0066669,12.5283322 91.96,12.745 C91.9133331,12.9616677 91.89,13.1766656 91.89,13.39 C91.89,13.6033344 91.9166664,13.8116656 91.97,14.015 C92.0233336,14.2183344 92.1049994,14.3999992 92.215,14.56 C92.3250005,14.7200008 92.4649991,14.8499995 92.635,14.95 C92.8050008,15.0500005 93.0099988,15.1 93.25,15.1 L93.25,15.1 Z M96.93,10.83 L98.01,10.83 L98.01,11.59 L98.03,11.61 C98.2033342,11.3233319 98.4299986,11.0983341 98.71,10.935 C98.9900014,10.7716659 99.2999983,10.69 99.64,10.69 C100.206669,10.69 100.653332,10.8366652 100.98,11.13 C101.306668,11.4233348 101.47,11.8633304 101.47,12.45 L101.47,16 L100.33,16 L100.33,12.75 C100.316667,12.3433313 100.230001,12.0483343 100.07,11.865 C99.9099992,11.6816658 99.6600017,11.59 99.32,11.59 C99.1266657,11.59 98.9533341,11.6249997 98.8,11.695 C98.6466659,11.7650004 98.5166672,11.8616661 98.41,11.985 C98.3033328,12.108334 98.2200003,12.2533325 98.16,12.42 C98.0999997,12.5866675 98.07,12.7633324 98.07,12.95 L98.07,16 L96.93,16 L96.93,10.83 Z M105.48,8.86 L106.62,8.86 L106.62,9.94 L105.48,9.94 L105.48,8.86 Z M105.48,10.83 L106.62,10.83 L106.62,16 L105.48,16 L105.48,10.83 Z M107.86,10.83 L108.94,10.83 L108.94,11.59 L108.96,11.61 C109.133334,11.3233319 109.359999,11.0983341 109.64,10.935 C109.920001,10.7716659 110.229998,10.69 110.57,10.69 C111.136669,10.69 111.583332,10.8366652 111.91,11.13 C112.236668,11.4233348 112.4,11.8633304 112.4,12.45 L112.4,16 L111.26,16 L111.26,12.75 C111.246667,12.3433313 111.160001,12.0483343 111,11.865 C110.839999,11.6816658 110.590002,11.59 110.25,11.59 C110.056666,11.59 109.883334,11.6249997 109.73,11.695 C109.576666,11.7650004 109.446667,11.8616661 109.34,11.985 C109.233333,12.108334 109.15,12.2533325 109.09,12.42 C109.03,12.5866675 109,12.7633324 109,12.95 L109,16 L107.86,16 L107.86,10.83 Z" fill="#FFFFFF"></path>
                        <path d="M77.33,21.83 L78.19,21.83 L78.19,20.28 L79.33,20.28 L79.33,21.83 L80.36,21.83 L80.36,22.68 L79.33,22.68 L79.33,25.44 C79.33,25.5600006 79.335,25.6633329 79.345,25.75 C79.3550001,25.8366671 79.3783332,25.9099997 79.415,25.97 C79.4516669,26.0300003 79.5066663,26.0749998 79.58,26.105 C79.6533337,26.1350002 79.7533327,26.15 79.88,26.15 C79.9600004,26.15 80.0399996,26.1483334 80.12,26.145 C80.2000004,26.1416666 80.2799996,26.1300001 80.36,26.11 L80.36,26.99 C80.2333327,27.0033334 80.1100006,27.0166666 79.99,27.03 C79.8699994,27.0433334 79.7466673,27.05 79.62,27.05 C79.3199985,27.05 79.0783343,27.0216669 78.895,26.965 C78.7116658,26.908333 78.5683339,26.8250006 78.465,26.715 C78.3616662,26.6049994 78.2916669,26.4666675 78.255,26.3 C78.2183332,26.1333325 78.1966667,25.9433344 78.19,25.73 L78.19,22.68 L77.33,22.68 L77.33,21.83 Z M81.18,19.86 L82.32,19.86 L82.32,22.51 L82.34,22.51 C82.4800007,22.2766655 82.688332,22.0816675 82.965,21.925 C83.2416681,21.7683326 83.5499983,21.69 83.89,21.69 C84.4566695,21.69 84.9033317,21.8366652 85.23,22.13 C85.5566683,22.4233348 85.72,22.8633304 85.72,23.45 L85.72,27 L84.58,27 L84.58,23.75 C84.5666666,23.3433313 84.4800008,23.0483343 84.32,22.865 C84.1599992,22.6816658 83.9100017,22.59 83.57,22.59 C83.3766657,22.59 83.2033341,22.6249997 83.05,22.695 C82.8966659,22.7650004 82.7666672,22.8616661 82.66,22.985 C82.5533328,23.108334 82.4700003,23.2533325 82.41,23.42 C82.3499997,23.5866675 82.32,23.7633324 82.32,23.95 L82.32,27 L81.18,27 L81.18,19.86 Z M86.92,21.83 L87.99,21.83 L87.99,22.83 L88.01,22.83 C88.0433335,22.6899993 88.1083329,22.553334 88.205,22.42 C88.3016672,22.286666 88.4183327,22.1650005 88.555,22.055 C88.6916674,21.9449995 88.8433325,21.856667 89.01,21.79 C89.1766675,21.723333 89.3466658,21.69 89.52,21.69 C89.653334,21.69 89.7449998,21.6933333 89.795,21.7 C89.8450003,21.7066667 89.8966664,21.7133333 89.95,21.72 L89.95,22.82 C89.8699996,22.8066666 89.7883338,22.7950001 89.705,22.785 C89.6216663,22.775 89.5400004,22.77 89.46,22.77 C89.2666657,22.77 89.0850009,22.8083329 88.915,22.885 C88.7449992,22.961667 88.5966673,23.0749992 88.47,23.225 C88.3433327,23.3750008 88.2433337,23.5599989 88.17,23.78 C88.0966663,24.0000011 88.06,24.2533319 88.06,24.54 L88.06,27 L86.92,27 L86.92,21.83 Z M92.63,27.14 C92.2166646,27.14 91.848335,27.0716674 91.525,26.935 C91.2016651,26.7983326 90.9283345,26.6100012 90.705,26.37 C90.4816656,26.1299988 90.3116673,25.843335 90.195,25.51 C90.0783328,25.176665 90.02,24.810002 90.02,24.41 C90.02,24.0166647 90.0783328,23.653335 90.195,23.32 C90.3116673,22.986665 90.4816656,22.7000012 90.705,22.46 C90.9283345,22.2199988 91.2016651,22.0316674 91.525,21.895 C91.848335,21.7583326 92.2166646,21.69 92.63,21.69 C93.0433354,21.69 93.4116651,21.7583326 93.735,21.895 C94.058335,22.0316674 94.3316656,22.2199988 94.555,22.46 C94.7783345,22.7000012 94.9483328,22.986665 95.065,23.32 C95.1816673,23.653335 95.24,24.0166647 95.24,24.41 C95.24,24.810002 95.1816673,25.176665 95.065,25.51 C94.9483328,25.843335 94.7783345,26.1299988 94.555,26.37 C94.3316656,26.6100012 94.058335,26.7983326 93.735,26.935 C93.4116651,27.0716674 93.0433354,27.14 92.63,27.14 L92.63,27.14 Z M92.63,26.24 C92.8833346,26.24 93.1033324,26.1866672 93.29,26.08 C93.4766676,25.9733328 93.6299994,25.8333342 93.75,25.66 C93.8700006,25.4866658 93.9583331,25.2916677 94.015,25.075 C94.071667,24.8583322 94.1,24.6366678 94.1,24.41 C94.1,24.1899989 94.071667,23.9700011 94.015,23.75 C93.9583331,23.5299989 93.8700006,23.3350009 93.75,23.165 C93.6299994,22.9949991 93.4766676,22.8566672 93.29,22.75 C93.1033324,22.6433328 92.8833346,22.59 92.63,22.59 C92.3766654,22.59 92.1566676,22.6433328 91.97,22.75 C91.7833324,22.8566672 91.6300006,22.9949991 91.51,23.165 C91.3899994,23.3350009 91.301667,23.5299989 91.245,23.75 C91.1883331,23.9700011 91.16,24.1899989 91.16,24.41 C91.16,24.6366678 91.1883331,24.8583322 91.245,25.075 C91.301667,25.2916677 91.3899994,25.4866658 91.51,25.66 C91.6300006,25.8333342 91.7833324,25.9733328 91.97,26.08 C92.1566676,26.1866672 92.3766654,26.24 92.63,26.24 L92.63,26.24 Z M100.73,27 L99.61,27 L99.61,26.28 L99.59,26.28 C99.4499993,26.5400013 99.2416681,26.7483325 98.965,26.905 C98.688332,27.0616674 98.4066681,27.14 98.12,27.14 C97.4399966,27.14 96.9483349,26.9716684 96.645,26.635 C96.3416652,26.2983317 96.19,25.7900034 96.19,25.11 L96.19,21.83 L97.33,21.83 L97.33,25 C97.33,25.4533356 97.4166658,25.7733324 97.59,25.96 C97.7633342,26.1466676 98.0066651,26.24 98.32,26.24 C98.5600012,26.24 98.7599992,26.2033337 98.92,26.13 C99.0800008,26.0566663 99.2099995,25.958334 99.31,25.835 C99.4100005,25.711666 99.4816665,25.5633342 99.525,25.39 C99.5683336,25.2166658 99.59,25.030001 99.59,24.83 L99.59,21.83 L100.73,21.83 L100.73,27 Z M106.71,26.73 C106.71,27.5100039 106.491669,28.0916647 106.055,28.475 C105.618331,28.8583352 104.990004,29.05 104.17,29.05 C103.909999,29.05 103.648335,29.0233336 103.385,28.97 C103.121665,28.9166664 102.881668,28.8266673 102.665,28.7 C102.448332,28.5733327 102.266667,28.4066677 102.12,28.2 C101.973333,27.9933323 101.886667,27.7400015 101.86,27.44 L103,27.44 C103.033334,27.6000008 103.09,27.7299995 103.17,27.83 C103.25,27.9300005 103.344999,28.0083331 103.455,28.065 C103.565001,28.1216669 103.686666,28.1583333 103.82,28.175 C103.953334,28.1916667 104.093333,28.2 104.24,28.2 C104.700002,28.2 105.036666,28.0866678 105.25,27.86 C105.463334,27.6333322 105.57,27.3066688 105.57,26.88 L105.57,26.09 L105.55,26.09 C105.389999,26.3766681 105.171668,26.5999992 104.895,26.76 C104.618332,26.9200008 104.320002,27 104,27 C103.586665,27 103.235001,26.928334 102.945,26.785 C102.654999,26.641666 102.415001,26.4450013 102.225,26.195 C102.034999,25.9449988 101.896667,25.6566683 101.81,25.33 C101.723333,25.0033317 101.68,24.6533352 101.68,24.28 C101.68,23.9333316 101.733333,23.6033349 101.84,23.29 C101.946667,22.9766651 102.099999,22.7016679 102.3,22.465 C102.500001,22.2283321 102.744999,22.0400007 103.035,21.9 C103.325001,21.7599993 103.653332,21.69 104.02,21.69 C104.346668,21.69 104.646665,21.7583326 104.92,21.895 C105.193335,22.0316674 105.403333,22.2466652 105.55,22.54 L105.57,22.54 L105.57,21.83 L106.71,21.83 L106.71,26.73 Z M104.18,26.1 C104.433335,26.1 104.648332,26.0483338 104.825,25.945 C105.001668,25.8416661 105.144999,25.7050009 105.255,25.535 C105.365001,25.3649991 105.445,25.1716677 105.495,24.955 C105.545,24.7383322 105.57,24.5200011 105.57,24.3 C105.57,24.0799989 105.543334,23.8666677 105.49,23.66 C105.436666,23.4533323 105.355001,23.2700008 105.245,23.11 C105.134999,22.9499992 104.991668,22.8233338 104.815,22.73 C104.638332,22.6366662 104.426668,22.59 104.18,22.59 C103.926665,22.59 103.713334,22.6433328 103.54,22.75 C103.366666,22.8566672 103.226667,22.9949991 103.12,23.165 C103.013333,23.3350009 102.936667,23.5283322 102.89,23.745 C102.843333,23.9616677 102.82,24.1766656 102.82,24.39 C102.82,24.6033344 102.846666,24.8116656 102.9,25.015 C102.953334,25.2183344 103.034999,25.3999992 103.145,25.56 C103.255001,25.7200008 103.394999,25.8499995 103.565,25.95 C103.735001,26.0500005 103.939999,26.1 104.18,26.1 L104.18,26.1 Z M107.86,19.86 L109,19.86 L109,22.51 L109.02,22.51 C109.160001,22.2766655 109.368332,22.0816675 109.645,21.925 C109.921668,21.7683326 110.229998,21.69 110.57,21.69 C111.13667,21.69 111.583332,21.8366652 111.91,22.13 C112.236668,22.4233348 112.4,22.8633304 112.4,23.45 L112.4,27 L111.26,27 L111.26,23.75 C111.246667,23.3433313 111.160001,23.0483343 111,22.865 C110.839999,22.6816658 110.590002,22.59 110.25,22.59 C110.056666,22.59 109.883334,22.6249997 109.73,22.695 C109.576666,22.7650004 109.446667,22.8616661 109.34,22.985 C109.233333,23.108334 109.15,23.2533325 109.09,23.42 C109.03,23.5866675 109,23.7633324 109,23.95 L109,27 L107.86,27 L107.86,19.86 Z" id="through" fill="#FFFFFF"></path>
                        <path d="M64.706,39.556 C64.706,39.2786653 64.6041677,39.0533342 64.4005,38.88 C64.1968323,38.7066658 63.9411682,38.5485007 63.6335,38.4055 C63.3258318,38.2624993 62.9921685,38.1151674 62.6325,37.9635 C62.2728315,37.8118326 61.9391682,37.6255011 61.6315,37.4045 C61.3238318,37.1834989 61.0681677,36.908335 60.8645,36.579 C60.6608323,36.249665 60.559,35.8293359 60.559,35.318 C60.559,34.8759978 60.6326659,34.4925016 60.78,34.1675 C60.9273341,33.8424984 61.1374986,33.5716678 61.4105,33.355 C61.6835014,33.1383322 62.0063315,32.9780005 62.379,32.874 C62.7516685,32.7699995 63.1676644,32.718 63.627,32.718 C64.1556693,32.718 64.6539977,32.7634995 65.122,32.8545 C65.5900023,32.9455005 65.9756652,33.0776658 66.279,33.251 L65.72,34.746 C65.5293324,34.6246661 65.2433352,34.5141672 64.862,34.4145 C64.4806648,34.3148328 64.0690022,34.265 63.627,34.265 C63.2109979,34.265 62.8925011,34.3473325 62.6715,34.512 C62.4504989,34.6766675 62.34,34.8976653 62.34,35.175 C62.34,35.4350013 62.4418323,35.6516658 62.6455,35.825 C62.8491677,35.9983342 63.1048318,36.1586659 63.4125,36.306 C63.7201682,36.4533341 64.0538315,36.6049992 64.4135,36.761 C64.7731685,36.9170008 65.1068318,37.1054989 65.4145,37.3265 C65.7221682,37.5475011 65.9778323,37.8204984 66.1815,38.1455 C66.3851677,38.4705016 66.487,38.8756642 66.487,39.361 C66.487,39.8463358 66.4068341,40.2644982 66.2465,40.6155 C66.0861659,40.9665018 65.8608348,41.2589988 65.5705,41.493 C65.2801652,41.7270012 64.9291687,41.9003328 64.5175,42.013 C64.1058313,42.1256672 63.6530025,42.182 63.159,42.182 C62.5089968,42.182 61.9370025,42.1213339 61.443,42 C60.9489975,41.8786661 60.5850012,41.7573339 60.351,41.636 L60.923,40.115 C61.0183338,40.1670003 61.1418326,40.223333 61.2935,40.284 C61.4451674,40.344667 61.6163324,40.4009997 61.807,40.453 C61.9976676,40.5050003 62.1991656,40.5483332 62.4115,40.583 C62.6238344,40.6176668 62.8426655,40.635 63.068,40.635 C63.5966693,40.635 64.0018319,40.5461676 64.2835,40.3685 C64.5651681,40.1908324 64.706,39.9200018 64.706,39.556 L64.706,39.556 Z M77.131,34.486 L74.479,34.486 L74.479,42 L72.698,42 L72.698,34.486 L70.033,34.486 L70.033,32.9 L77.131,32.9 L77.131,34.486 Z M81.054,32.9 L86.449,32.9 L86.449,34.486 L82.835,34.486 L82.835,36.605 L86.124,36.605 L86.124,38.191 L82.835,38.191 L82.835,40.414 L86.514,40.414 L86.514,42 L81.054,42 L81.054,32.9 Z M95.325,39.985 L92.53,39.985 L91.841,42 L90.06,42 L93.336,32.835 L94.649,32.835 L97.925,42 L96.053,42 L95.325,39.985 Z M92.985,38.555 L94.935,38.555 L94.259,36.527 L93.986,35.097 L93.921,35.097 L93.648,36.54 L92.985,38.555 Z M108.764,37.281 L108.959,35.474 L108.881,35.474 L108.322,36.93 L106.385,40.323 L105.813,40.323 L103.772,36.917 L103.2,35.474 L103.135,35.474 L103.395,37.268 L103.395,42 L101.705,42 L101.705,32.9 L103.33,32.9 L105.761,37.06 L106.19,38.1 L106.242,38.1 L106.632,37.034 L108.933,32.9 L110.545,32.9 L110.545,42 L108.764,42 L108.764,37.281 Z" id="STEAM" fill="#FFFFFF"></path>
                        <path d="M112.681,33.254 L112.681,35 L113.152,35 L113.152,33.254 L113.794,33.254 L113.794,32.858 L112.039,32.858 L112.039,33.254 L112.681,33.254 Z M114.04,32.858 L114.04,35 L114.481,35 L114.481,33.497 L114.487,33.497 L115.012,35 L115.375,35 L115.9,33.482 L115.906,33.482 L115.906,35 L116.347,35 L116.347,32.858 L115.684,32.858 L115.21,34.331 L115.204,34.331 L114.703,32.858 L114.04,32.858 Z" id="TM" fill="#FFFFFF"></path>
                    </g>
                </g>
            </g>
        </g>
    </g>
</svg>