<?xml version="1.0" encoding="UTF-8" standalone="no"?>
<svg width="126px" height="58px" viewBox="0 0 126 58" version="1.1" xmlns="http://www.w3.org/2000/svg" xmlns:xlink="http://www.w3.org/1999/xlink" xmlns:sketch="http://www.bohemiancoding.com/sketch/ns">
    <!-- Generator: Sketch 3.4 (15575) - http://www.bohemiancoding.com/sketch -->
    <title>steam</title>
    <desc>Created with Sketch.</desc>
    <defs>
        <linearGradient x1="50%" y1="100%" x2="50%" y2="3.061617e-15%" id="linearGradient-1">
            <stop stop-color="#C1D836" offset="0%"></stop>
            <stop stop-color="#7E9D12" offset="100%"></stop>
        </linearGradient>
    </defs>
    <g id="Landing" stroke="none" stroke-width="1" fill="none" fill-rule="evenodd" sketch:type="MSPage">
        <g id="1" sketch:type="MSArtboardGroup" transform="translate(-655.000000, -2634.000000)" fill="url(#linearGradient-1)">
            <g id="4" sketch:type="MSLayerGroup" transform="translate(0.000000, 2215.000000)">
                <g id="2" transform="translate(590.000000, 407.000000)" sketch:type="MSShapeGroup">
                    <path d="M137.489394,47.305115 C139.25804,45.934903 141.399308,45.0165132 143.737068,44.7247669 L156.312467,28.6868515 C156.595648,19.4232938 164.250511,12 173.652174,12 C183.233114,12 191,19.709097 191,29.21875 C191,38.5504602 183.521059,46.1483672 174.18806,46.4294411 C169.528321,50.0289938 162.989263,55.0802829 158.02992,58.9112736 C157.237896,65.1636615 151.861889,70 145.347826,70 C138.886447,70 133.54479,65.2415748 132.685847,59.0626959 L85.6410417,40.132384 C83.4732471,41.8118267 80.7456638,42.8125 77.7826087,42.8125 C70.7229689,42.8125 65,37.1321128 65,30.125 C65,23.1178872 70.7229689,17.4375 77.7826087,17.4375 C84.2439874,17.4375 89.5856452,22.1959252 90.444588,28.3748041 L137.489395,47.3051166 Z M141.703325,49.0007558 C142.81971,48.5178322 144.052256,48.25 145.347826,48.25 C150.390426,48.25 154.478261,52.3074195 154.478261,57.3125 C154.478261,62.3175805 150.390426,66.375 145.347826,66.375 C141.534437,66.375 138.26707,64.054599 136.900726,60.7587168 L142.94658,63.1915022 C146.217803,64.5078063 149.944727,62.9427626 151.270899,59.6958793 C152.59707,56.448996 151.020295,52.7498018 147.749072,51.4334978 L141.703325,49.0007558 Z M81.4271096,38.4367442 C80.3107245,38.9196678 79.0781789,39.1875 77.7826087,39.1875 C72.7400088,39.1875 68.6521739,35.1300805 68.6521739,30.125 C68.6521739,25.1199195 72.7400088,21.0625 77.7826087,21.0625 C81.5959974,21.0625 84.8633647,23.382901 86.2297092,26.6787832 L80.1838544,24.2459978 C76.9126317,22.9296937 73.1857074,24.4947374 71.859536,27.7416207 C70.5333646,30.988504 72.1101403,34.6876982 75.381363,36.0040022 L81.4271096,38.4367442 Z M173.652174,41 C180.207554,41 185.521739,35.7253547 185.521739,29.21875 C185.521739,22.7121453 180.207554,17.4375 173.652174,17.4375 C167.096794,17.4375 161.782609,22.7121453 161.782609,29.21875 C161.782609,35.7253547 167.096794,41 173.652174,41 Z M173.652174,38.28125 C178.694774,38.28125 182.782609,34.2238305 182.782609,29.21875 C182.782609,24.2136695 178.694774,20.15625 173.652174,20.15625 C168.609574,20.15625 164.521739,24.2136695 164.521739,29.21875 C164.521739,34.2238305 168.609574,38.28125 173.652174,38.28125 Z" id="steam"></path>
                </g>
            </g>
        </g>
    </g>
</svg>