<?xml version="1.0" encoding="UTF-8" standalone="no"?>
<svg width="63px" height="80px" viewBox="0 0 63 80" version="1.1" xmlns="http://www.w3.org/2000/svg" xmlns:xlink="http://www.w3.org/1999/xlink" xmlns:sketch="http://www.bohemiancoding.com/sketch/ns">
    <!-- Generator: Sketch 3.4 (15575) - http://www.bohemiancoding.com/sketch -->
    <title>team</title>
    <desc>Created with Sketch.</desc>
    <defs>
        <linearGradient x1="50%" y1="100%" x2="50%" y2="3.061617e-15%" id="linearGradient-1">
            <stop stop-color="#5AD0F2" offset="0%"></stop>
            <stop stop-color="#2592D5" offset="100%"></stop>
        </linearGradient>
    </defs>
    <g id="Landing" stroke="none" stroke-width="1" fill="none" fill-rule="evenodd" sketch:type="MSPage">
        <g id="1" sketch:type="MSArtboardGroup" transform="translate(-689.000000, -1139.000000)" fill="url(#linearGradient-1)">
            <g id="2" sketch:type="MSLayerGroup" transform="translate(0.000000, 863.000000)">
                <g transform="translate(590.000000, 276.000000)" id="team" sketch:type="MSShapeGroup">
                    <path d="M129.699863,2.06286775 C129.867161,2.1325824 130.012232,2.37144077 130.066048,2.5588703 C130.193569,3.00915833 130.206438,3.49373226 130.363208,3.93259166 C130.735243,4.97831132 130.730563,6.04117393 130.653348,7.12346521 C130.591342,8.00004115 129.869501,8.16004197 129.249443,8.4126147 C128.547491,8.69718759 128.432839,8.88118854 128.617686,9.6457639 C128.703091,9.99890857 128.766266,10.3577676 128.868049,10.8480558 C130.004042,10.6274832 131.257027,10.3851963 132.554469,10.1337664 C132.676141,9.53490618 132.803662,8.89833148 132.932353,8.26175678 C133.189736,8.40347179 133.332466,8.60690141 133.333636,8.81147389 C133.337146,9.36119101 133.375753,9.81033617 134.133862,9.7817646 C134.270742,9.77605028 134.419322,10.0709089 134.665006,10.3406246 L151.560998,10.3406246 C151.883896,10.5920545 151.425288,11.2903438 152.246572,11.0994857 L152.246572,8.06518434 L152.830362,8.06518434 C153.090085,9.04690367 152.57415,10.1097663 153.222286,10.9920565 C153.471479,10.9429134 153.684404,10.8994846 153.8985,10.8571987 C153.910199,11.0891999 153.941787,11.3223439 153.928918,11.5520594 C153.912539,11.8686325 153.938277,12.0960622 154.362958,12.0926336 C155.710707,12.0789193 157.059625,12.0869193 158.408543,12.0869193 C159.608882,11.4309159 160.763593,12.1360624 161.928834,11.7920607 C161.962762,12.1669197 162.010729,12.4366354 161.99786,12.7029225 C161.99318,12.8092087 161.859809,12.9932097 161.772065,13.0000669 C160.908664,13.0686386 159.961028,13.3452115 159.19473,13.0983531 C158.093835,12.7429227 157.031547,12.907495 155.9599,12.8766377 C154.953768,12.8480661 153.945296,12.998924 152.935655,13.0377813 C152.56362,13.0526386 152.186906,12.9760667 151.778604,12.9372094 C151.756375,13.2217823 151.736486,13.4732122 151.711918,13.7840709 C151.486123,13.7943567 151.269688,13.8137853 151.053253,13.8137853 C149.356868,13.8160711 147.660483,13.7840709 145.965268,13.8297854 C145.221199,13.850357 144.480639,14.0275007 143.774007,14.1280727 C143.631277,15.1760781 142.740967,15.4892225 142.278849,16.128083 C142.131439,16.3303697 141.868207,16.5646566 141.892775,16.7555148 C142.043695,17.8938063 142.26247,19.022955 142.462526,20.1543894 C142.483585,20.2709614 142.526872,20.382962 142.5608,20.5018197 C141.275057,20.6572491 140.955669,21.3898243 140.846866,22.334972 C140.79188,22.8081173 140.678397,23.2766911 140.564915,23.7418364 C140.363689,24.5738407 139.923799,25.2367012 139.125913,25.6515605 C138.902458,25.7681325 138.73165,25.9761336 138.518724,26.1189915 C138.020338,26.4515646 137.54418,26.8549953 136.993148,27.0629963 C136.65738,27.1898541 136.198772,27.0127104 135.795149,26.9624244 L135.520218,26.8687096 C133.965393,26.9269956 132.711238,26.1155629 131.398587,25.4949883 C130.541036,25.0892719 129.722091,24.6069837 128.910166,24.1726958 C128.71362,24.7784132 128.532282,25.338416 128.341585,25.9281334 C128.500694,26.0012766 128.658634,26.0881342 128.827102,26.1475631 C129.840253,26.5098506 130.233347,27.3098548 130.200589,28.2607168 C130.126884,30.3327274 130.057859,32.413881 129.786437,34.4653201 C129.678804,35.2813243 129.057576,36.0401854 128.624706,36.8001893 C128.55802,36.9156184 128.223423,36.9624758 128.040915,36.9224756 C127.627934,36.8310466 127.2325,36.6664743 126.823028,36.5293307 C126.387818,37.0264762 126.312943,37.5396217 126.446314,38.1899107 C126.64286,39.1567728 127.024254,39.9510626 127.721527,40.6882093 C130.0368,43.1362219 131.377529,46.1373802 132.601266,49.1933959 C132.891406,49.9168282 133.188566,50.6391176 133.441269,51.3751214 C133.582829,51.7888378 133.750128,52.1031251 134.3035,52.0025532 C134.350297,52.3145548 134.373695,52.5911276 134.435701,52.8597004 C134.522275,53.2379881 134.646287,53.6071329 134.737541,53.9842777 C134.819435,54.3294223 134.964505,54.6871384 134.932917,55.0254259 C134.700103,57.5454388 134.404113,60.0597375 134.192358,62.5820362 C134.136202,63.2380395 134.30467,63.9123287 134.380715,64.577475 C134.487178,65.520337 134.501217,66.4437703 133.931465,67.2780603 L133.828512,67.5500617 C133.829682,68.9626404 133.817983,70.3752191 133.86478,71.7855121 C133.874139,72.0769421 134.051967,72.4015152 134.242664,72.6392308 C134.835814,73.3775203 135.424284,74.1283813 136.108688,74.7786703 C136.526349,75.1763867 137.10312,75.4278165 137.635434,75.6929607 C138.247302,75.9981052 138.907138,76.2141063 139.513156,76.5306793 C139.990484,76.7786806 140.170652,77.9649724 139.822015,78.3752603 C139.733102,78.4792608 139.542404,78.5295468 139.390315,78.5501183 C137.455266,78.8129768 135.47927,78.9135487 133.598038,78.4906894 C131.95079,78.1215447 130.353848,77.9032578 128.669163,77.9775439 C127.574117,78.0255442 127.360022,77.667828 127.547209,76.5958225 C127.708658,75.6746749 127.915734,74.7603845 128.105261,73.8438084 L128.191835,73.622093 C128.760417,72.9786611 128.625876,72.2175143 128.580249,71.4712247 C128.525263,70.5752201 128.478466,69.6780727 128.40944,68.7832109 C128.382532,68.4266377 128.467936,68.0083498 127.983589,67.8277774 L127.861918,67.5683475 C127.344813,65.1900496 126.961079,62.7946087 126.875675,60.3591676 C126.853446,59.7248786 126.865145,59.1203041 127.436067,58.6723018 C127.52966,58.6003014 127.575287,58.4345863 127.589326,58.3054427 C127.648992,57.7900115 127.630273,57.2608659 127.746095,56.7591491 C127.893505,56.1168601 127.643142,55.6242861 127.253559,55.1785695 C127.124868,55.0311402 126.873335,54.9454255 126.665089,54.9191396 C126.407706,54.8871394 126.137455,54.9728542 125.874223,54.9602827 C125.221407,54.9282825 124.690263,54.7397101 124.29483,54.1351356 C123.150648,52.387698 121.950309,50.6756892 120.749971,48.9659661 C120.60841,48.7648222 120.325289,48.5202496 120.115874,48.5271067 C119.030187,48.5648212 118.415979,48.0128184 118.021716,47.106528 C117.904724,46.8390981 117.749124,46.5888111 117.52099,46.1590946 C117.37475,47.4425297 116.703215,48.2448196 115.908839,48.9876805 C115.731011,49.1533957 115.661986,49.4391114 115.563713,49.6779698 C115.206887,50.5465457 114.812624,51.4048358 114.521313,52.2939833 C114.244042,53.1419876 114.048666,54.0197064 113.874347,54.8951395 C113.730447,55.6128575 113.523371,56.2357178 112.741864,56.5351479 C112.568716,56.6002911 112.434175,56.834578 112.344091,57.0197218 C111.982586,57.7568685 111.647989,58.4734436 110.873501,58.9477318 C110.552943,59.1443042 110.487427,59.7088785 110.249934,60.0700232 C109.832272,60.7031694 109.790155,61.3466012 109.970323,62.0643192 C110.047537,62.3706065 109.969153,62.7386084 109.877899,63.0563243 C109.728149,63.5728984 109.528093,64.076901 109.319847,64.5740464 C108.68575,66.0826256 108.030594,67.5820619 107.401177,69.0929268 C107.168363,69.6495011 106.922679,70.1466465 106.210198,70.2335041 C106.082676,70.2495042 105.952815,70.4586481 105.870921,70.6037917 C104.810973,72.5032301 104.491585,74.5455263 104.676432,76.6781087 C104.69983,76.9489672 104.754817,77.2483973 104.897547,77.4723985 C105.29766,78.0986874 105.323398,78.7535479 105.14089,79.4278371 C105.102283,79.5718378 104.902227,79.7569816 104.754817,79.778696 C103.050242,80.0324116 101.338649,80.1386979 99.6492833,79.7066957 C99.4433773,79.654124 99.2012038,79.3695511 99.1555769,79.1546928 C98.9297822,78.110116 98.9426513,77.0701107 99.2409811,76.0209624 C99.8072226,74.0255236 100.319648,72.0140847 100.843772,70.0060744 C100.885889,69.8460735 100.912798,69.5843579 100.822714,69.5055003 C99.9815408,68.7729252 100.355915,67.8574919 100.493966,67.0414877 C100.594579,66.4369131 100.958424,65.8574816 101.284832,65.3123359 C101.778539,64.4906174 102.133025,63.6608989 102.156423,62.6768938 C102.168122,62.1397482 102.34712,61.5603166 102.611522,61.0848856 C103.260828,59.9168796 104.084452,58.836874 104.685791,57.6482965 C105.359666,56.3202897 106.344739,55.1385693 105.991423,53.3797031 C105.748079,52.1659826 106.168081,50.8162614 106.342399,49.5339691 C106.490979,48.4482492 106.710924,47.3716722 106.900451,46.2916667 L106.953097,46.0036652 C106.550645,45.4733767 106.558834,44.8402306 106.391536,44.2539419 C106.234766,43.7030819 106.285073,43.3807946 106.548305,42.9750782 L106.654768,42.7739343 C106.069807,42.1316453 106.0312,41.4756419 106.527246,40.5773516 C106.736662,40.197921 107.053711,40.0413488 107.612933,40.2642071 C107.442124,38.6779132 107.258447,37.1784769 107.126246,35.6744692 C107.034992,34.6447496 106.942568,33.6047443 106.988195,32.5761676 C107.022123,31.8287351 107.765022,31.6344484 108.366361,31.4001615 C108.544189,31.3304469 108.739566,31.3064467 109.056615,31.2298749 C108.09494,31.0275882 107.283015,30.8504444 106.46758,30.6893007 C106.149362,30.6264432 106.012481,30.4687281 106.052259,30.1510122 C106.124794,29.5578663 106.197329,28.9647204 106.255825,28.3704316 C106.424293,26.6675657 106.591592,24.9646998 106.746021,23.2595482 C106.805687,22.6069734 107.107527,22.3178291 107.79427,22.2835432 C108.400289,22.2538287 109.007478,22.2172571 109.611157,22.1566854 C110.15985,22.1006851 110.231215,21.7441118 110.139961,21.2892524 C109.538622,18.3098085 109.936395,15.4446509 111.316901,12.7417798 C112.306654,10.8023413 113.773734,9.37604822 116.114745,9.05376085 C116.971127,8.93604596 117.753804,8.92461733 118.288458,9.72462145 C118.857039,9.47090586 118.948293,9.14290417 118.771635,8.60690141 C117.903554,5.9771736 118.536481,3.65259022 120.414203,1.64457989 C121.174652,0.829718553 122.184293,0.381716249 123.281679,0.129143521 C123.416219,0.0982862198 123.544911,0.0434287948 123.675942,0 L125.392215,0 C127.021915,0.297144385 128.226933,1.44800745 129.699863,2.06286775 Z"></path>
                </g>
            </g>
        </g>
    </g>
</svg>