<?xml version="1.0" encoding="UTF-8" standalone="no"?>
<svg width="80px" height="80px" viewBox="0 0 80 80" version="1.1" xmlns="http://www.w3.org/2000/svg" xmlns:xlink="http://www.w3.org/1999/xlink" xmlns:sketch="http://www.bohemiancoding.com/sketch/ns">
    <!-- Generator: Sketch 3.4 (15575) - http://www.bohemiancoding.com/sketch -->
    <title>Oval 11</title>
    <desc>Created with Sketch.</desc>
    <defs>
        <linearGradient x1="50%" y1="100%" x2="50%" y2="-2.48949813e-15%" id="linearGradient-1">
            <stop stop-color="#FFCD41" offset="0%"></stop>
            <stop stop-color="#E39320" offset="100%"></stop>
        </linearGradient>
    </defs>
    <g id="Landing" stroke="none" stroke-width="1" fill="none" fill-rule="evenodd" sketch:type="MSPage">
        <g id="1" sketch:type="MSArtboardGroup" transform="translate(-1020.000000, -2622.000000)" fill="url(#linearGradient-1)">
            <g id="4" sketch:type="MSLayerGroup" transform="translate(0.000000, 2215.000000)">
                <g id="3" transform="translate(930.000000, 407.000000)" sketch:type="MSShapeGroup">
                    <path d="M130,80 C152.09139,80 170,62.09139 170,40 C170,17.90861 152.09139,0 130,0 C107.90861,0 90,17.90861 90,40 C90,62.09139 107.90861,80 130,80 L130,80 Z M114.497815,30.7692664 L122.463917,30.7692664 C122.735103,26.5658766 125.548663,23.8879105 129.921544,23.8879105 C134.19273,23.8879105 137.040188,26.49808 137.040188,30.0913003 C137.040188,33.4472325 135.616459,35.277741 131.413069,37.8201139 C126.735103,40.5658766 124.769002,43.616724 125.074086,48.6336732 L125.107985,51.0404529 L132.972391,51.0404529 L132.972391,49.0743512 C132.972391,45.6845207 134.226629,43.9218088 138.667307,41.3455376 C143.277476,38.5997749 145.853747,34.9726563 145.853747,29.7862156 C145.853747,22.3285885 139.650358,16.9726563 130.362222,16.9726563 C120.294425,16.9726563 114.769002,22.8031647 114.497815,30.7692664 L114.497815,30.7692664 Z M129.141883,66.9726563 C131.887646,66.9726563 134.057137,64.837063 134.057137,62.1590969 C134.057137,59.4811308 131.887646,57.3794359 129.141883,57.3794359 C126.39612,57.3794359 124.19273,59.4811308 124.19273,62.1590969 C124.19273,64.837063 126.39612,66.9726563 129.141883,66.9726563 L129.141883,66.9726563 Z" id="Oval-11"></path>
                </g>
            </g>
        </g>
    </g>
</svg>